nColumns=19
nRows=104
DataType=double
version=3
OpenSimVersion=4.1
endheader
time	ground_force_1_vx	ground_force_1_vy	ground_force_1_vz	ground_force_1_px	ground_force_1_py	ground_force_1_pz	ground_force_1_mx	ground_force_1_my	ground_force_1_mz	ground_force_2_vx	ground_force_2_vy	ground_force_2_vz	ground_force_2_px	ground_force_2_py	ground_force_2_pz	ground_force_2_mx	ground_force_2_my	ground_force_2_mz
0.04	8.31047	36.7555	10.313	0.01483	0.006	-0.190714	0	0.76201	0	0	0	0	0.702927	0	-0.165519	0	0	0
0.05	7.96578	59.0485	13.0363	0.031293	0.006	-0.188421	0	0.68693	0	0	0	0	0.702927	0	-0.165519	0	0	0
0.06	6.86	86.4263	15.9782	0.041655	0.006	-0.186858	0	0.618372	0	0	0	0	0.702927	0	-0.165519	0	0	0
0.07	4.74576	118.983	19.0083	0.049248	0.006	-0.185622	0	0.537565	0	0	0	0	0.702927	0	-0.165519	0	0	0
0.08	1.35552	156.484	21.938	0.055418	0.006	-0.184546	0	0.433158	0	0	0	0	0.702927	0	-0.165519	0	0	0
0.09	-3.49188	198.42	24.5356	0.060821	0.006	-0.183538	0	0.296317	0	0	0	0	0.702927	0	-0.165519	0	0	0
0.1	-9.77588	244.168	26.5404	0.065804	0.006	-0.182532	0	0.119976	0	0	0	0	0.702927	0	-0.165519	0	0	0
0.11	-17.3017	293.051	27.671	0.070543	0.006	-0.181485	0	-0.100571	0	0	0	0	0.702927	0	-0.165519	0	0	0
0.12	-25.8062	344.281	27.6618	0.075131	0.006	-0.180374	0	-0.367059	0	0	0	0	0.702927	0	-0.165519	0	0	0
0.13	-35.016	396.9	26.3141	0.079612	0.006	-0.179198	0	-0.677515	0	0	0	0	0.702927	0	-0.165519	0	0	0
0.14	-44.6409	449.804	23.5406	0.084004	0.006	-0.177973	0	-1.0239	0	0	0	0	0.702927	0	-0.165519	0	0	0
0.15	-54.3516	501.805	19.3986	0.088298	0.006	-0.176725	0	-1.38921	0	0	0	0	0.702927	0	-0.165519	0	0	0
0.16	-63.7854	551.659	14.1052	0.092467	0.006	-0.175488	0	-1.74762	0	0	0	0	0.702927	0	-0.165519	0	0	0
0.17	-72.5598	598.08	8.01621	0.096476	0.006	-0.1743	0	-2.06965	0	0	0	0	0.702927	0	-0.165519	0	0	0
0.18	-80.2901	639.821	1.55767	0.100289	0.006	-0.173192	0	-2.33057	0	0	0	0	0.702927	0	-0.165519	0	0	0
0.19	-86.6301	675.795	-4.8544	0.103881	0.006	-0.172185	0	-2.51685	0	0	0	0	0.702927	0	-0.165519	0	0	0
0.2	-91.3173	705.217	-10.8713	0.107243	0.006	-0.171287	0	-2.62701	0	0	0	0	0.702927	0	-0.165519	0	0	0
0.21	-94.2125	727.678	-16.2407	0.110383	0.006	-0.170498	0	-2.66877	0	0	0	0	0.702927	0	-0.165519	0	0	0
0.22	-95.3063	743.144	-20.8021	0.113326	0.006	-0.169808	0	-2.65422	0	0	0	0	0.702927	0	-0.165519	0	0	0
0.23	-94.6991	751.897	-24.4784	0.116105	0.006	-0.169205	0	-2.59631	0	0	0	0	0.702927	0	-0.165519	0	0	0
0.24	-92.5742	754.485	-27.2643	0.11876	0.006	-0.168674	0	-2.50708	0	0	0	0	0.702927	0	-0.165519	0	0	0
0.25	-89.1643	751.655	-29.2083	0.121334	0.006	-0.168201	0	-2.39651	0	0	0	0	0.702927	0	-0.165519	0	0	0
0.26	-84.7211	744.289	-30.3941	0.123872	0.006	-0.167772	0	-2.27191	0	0	0	0	0.702927	0	-0.165519	0	0	0
0.27	-79.4992	733.341	-30.9264	0.126416	0.006	-0.167374	0	-2.1384	0	0	0	0	0.702927	0	-0.165519	0	0	0
0.28	-73.7478	719.788	-30.9162	0.129008	0.006	-0.166997	0	-1.99973	0	0	0	0	0.702927	0	-0.165519	0	0	0
0.29	-67.7081	704.586	-30.467	0.131692	0.006	-0.166635	0	-1.85919	0	0	0	0	0.702927	0	-0.165519	0	0	0
0.3	-61.6045	688.635	-29.664	0.134504	0.006	-0.166284	0	-1.72062	0	0	0	0	0.702927	0	-0.165519	0	0	0
0.31	-55.6309	672.763	-28.5706	0.137476	0.006	-0.165947	0	-1.58908	0	0	0	0	0.702927	0	-0.165519	0	0	0
0.32	-49.9376	657.698	-27.229	0.14063	0.006	-0.165628	0	-1.47099	0	0	0	0	0.702927	0	-0.165519	0	0	0
0.33	-44.6229	644.05	-25.6669	0.143975	0.006	-0.165337	0	-1.37383	0	0	0	0	0.702927	0	-0.165519	0	0	0
0.34	-39.7326	632.282	-23.9101	0.147504	0.006	-0.165082	0	-1.30539	0	0	0	0	0.702927	0	-0.165519	0	0	0
0.35	-35.2645	622.704	-21.9954	0.151202	0.006	-0.16487	0	-1.27273	0	0	0	0	0.702927	0	-0.165519	0	0	0
0.36	-31.1802	615.469	-19.9797	0.155045	0.006	-0.164702	0	-1.28099	0	0	0	0	0.702927	0	-0.165519	0	0	0
0.37	-27.4214	610.602	-17.9435	0.159011	0.006	-0.164572	0	-1.33241	0	0	0	0	0.702927	0	-0.165519	0	0	0
0.38	-23.9247	608.024	-15.9861	0.163083	0.006	-0.164469	0	-1.42586	0	0	0	0	0.702927	0	-0.165519	0	0	0
0.39	-20.628	607.597	-14.2131	0.167254	0.006	-0.164375	0	-1.55709	0	0	0	0	0.702927	0	-0.165519	0	0	0
0.4	-17.4731	609.16	-12.7176	0.171525	0.006	-0.164276	0	-1.71961	0	0	0	0	0.702927	0	-0.165519	0	0	0
0.41	-14.4049	612.565	-11.5672	0.175903	0.006	-0.164157	0	-1.90574	0	0	0	0	0.702927	0	-0.165519	0	0	0
0.42	-11.3698	617.697	-10.7995	0.180399	0.006	-0.164009	0	-2.10779	0	0	0	0	0.702927	0	-0.165519	0	0	0
0.43	-8.31573	624.48	-10.4244	0.185024	0.006	-0.163828	0	-2.31863	0	0	0	0	0.702927	0	-0.165519	0	0	0
0.44	-5.19161	632.863	-10.431	0.189784	0.006	-0.163613	0	-2.53173	0	0	0	0	0.702927	0	-0.165519	0	0	0
0.45	-1.94855	642.805	-10.795	0.19468	0.006	-0.163369	0	-2.7407	0	0	0	0	0.702927	0	-0.165519	0	0	0
0.46	1.45792	654.251	-11.4852	0.199707	0.006	-0.163101	0	-2.93876	0	0	0	0	0.702927	0	-0.165519	0	0	0
0.47	5.06694	667.12	-12.4632	0.204849	0.006	-0.162817	0	-3.11835	0	0	0	0	0.702927	0	-0.165519	0	0	0
0.48	8.91451	681.288	-13.6828	0.210082	0.006	-0.162526	0	-3.27129	0	0	0	0	0.702927	0	-0.165519	0	0	0
0.49	13.0377	696.581	-15.0879	0.21537	0.006	-0.162242	0	-3.38967	0	0	0	0	0.702927	0	-0.165519	0	0	0
0.5	17.4777	712.763	-16.6107	0.220669	0.006	-0.161976	0	-3.46731	0	0	0	0	0.702927	0	-0.165519	0	0	0
0.51	22.2784	729.532	-18.1722	0.225931	0.006	-0.161742	0	-3.50071	0	0	0	0	0.702927	0	-0.165519	0	0	0
0.52	27.4797	746.507	-19.6854	0.231107	0.006	-0.161553	0	-3.48953	0	0	0	0	0.702927	0	-0.165519	0	0	0
0.53	33.1084	763.215	-21.0615	0.236155	0.006	-0.161416	0	-3.43634	0	0	0	0	0.702927	0	-0.165519	0	0	0
0.54	39.1694	779.068	-22.2179	0.241041	0.006	-0.161338	0	-3.34582	0	0	0	0	0.702927	0	-0.165519	0	0	0
0.55	45.6379	793.358	-23.0885	0.245743	0.006	-0.161318	0	-3.2236	0	0	0	0	0.702927	0	-0.165519	0	0	0
0.56	52.4574	805.281	-23.6266	0.25025	0.006	-0.161355	0	-3.07542	0	0	0	0	0.702927	0	-0.165519	0	0	0
0.57	59.5378	813.984	-23.8042	0.254561	0.006	-0.161441	0	-2.90696	0	0	0	0	0.702927	0	-0.165519	0	0	0
0.58	66.755	818.599	-23.6092	0.25868	0.006	-0.161569	0	-2.72376	0	0	0	0	0.702927	0	-0.165519	0	0	0
0.59	73.9509	818.289	-23.0423	0.262618	0.006	-0.161732	0	-2.53114	0	1.23679	32.0349	-9.42597	0.730688	0.006	-0.182134	0	-0.053493	0
0.6	80.9307	812.277	-22.1106	0.266389	0.006	-0.161924	0	-2.33453	0	-0.221649	55.3455	-11.4892	0.763325	0.006	-0.201143	0	0.073201	0
0.61	87.4583	799.882	-20.824	0.270014	0.006	-0.162138	0	-2.13968	0	-2.40031	84.2783	-13.6858	0.780359	0.006	-0.210563	0	0.141975	0
0.62	93.262	780.555	-19.1944	0.273515	0.006	-0.162372	0	-1.95242	0	-5.44225	119.05	-15.9066	0.791214	0.006	-0.216197	0	0.196759	0
0.63	98.0419	753.934	-17.2377	0.276917	0.006	-0.162624	0	-1.77811	0	-9.48786	159.532	-17.9948	0.799078	0.006	-0.219992	0	0.25445	0
0.64	101.482	719.902	-14.982	0.280247	0.006	-0.162893	0	-1.62089	0	-14.6662	205.186	-19.7485	0.805345	0.006	-0.222789	0	0.323824	0
0.65	103.276	678.649	-12.4788	0.283536	0.006	-0.163178	0	-1.4824	0	-21.023	255.146	-20.9448	0.810717	0.006	-0.225015	0	0.410341	0
0.66	103.167	630.732	-9.8121	0.286815	0.006	-0.163477	0	-1.36104	0	-28.465	308.36	-21.374	0.815573	0.006	-0.226907	0	0.517168	0
0.67	100.998	577.093	-7.0985	0.290116	0.006	-0.163785	0	-1.25247	0	-36.7695	363.639	-20.8641	0.820121	0.006	-0.2286	0	0.644859	0
0.68	96.7359	519.041	-4.47725	0.293477	0.006	-0.164096	0	-1.15079	0	-45.6362	419.642	-19.3014	0.824471	0.006	-0.230172	0	0.79012	0
0.69	90.502	458.17	-2.09131	0.29694	0.006	-0.164399	0	-1.05015	0	-54.7236	474.908	-16.6564	0.828676	0.006	-0.231666	0	0.944332	0
0.7	82.576	396.249	-0.0605076	0.300558	0.006	-0.164685	0	-0.946976	0	-63.6563	527.942	-13.01	0.832754	0.006	-0.233101	0	1.09293	0
0.71	73.3686	335.096	1.53769	0.304407	0.006	-0.164943	0	-0.840552	0	-72.0423	577.342	-8.56104	0.836703	0.006	-0.234479	0	1.21741	0
0.72	63.378	276.437	2.67923	0.308601	0.006	-0.165167	0	-0.732857	0	-79.5135	621.903	-3.59638	0.840508	0.006	-0.235795	0	1.30088	0
0.73	53.1354	221.762	3.39067	0.313324	0.006	-0.165349	0	-0.627373	0	-85.7648	660.676	1.5618	0.844156	0.006	-0.23704	0	1.33349	0
0.74	43.1403	172.227	3.73596	0.318887	0.006	-0.165476	0	-0.527867	0	-90.5639	692.993	6.60232	0.84763	0.006	-0.238207	0	1.31399	0
0.75	33.8048	128.596	3.79725	0.325855	0.006	-0.165526	0	-0.438128	0	-93.7552	718.481	11.2603	0.850919	0.006	-0.239291	0	1.24898	0
0.76	25.4245	91.2507	3.65752	0.335356	0.006	-0.165441	0	-0.362377	0	-95.2837	737.063	15.3475	0.854021	0.006	-0.240293	0	1.15175	0
0.77	18.1698	60.2242	3.3884	0.349975	0.006	-0.165088	0	-0.307249	0	-95.2008	748.928	18.7481	0.856942	0.006	-0.241218	0	1.03844	0
0.78	12.0929	35.2561	3.04397	0.377179	0.006	-0.164061	0	-0.289	0	-93.6347	754.486	21.3979	0.859697	0.006	-0.242073	0	0.924162	0
0.79	0	0	0	0.427624	0	-0.162392	0	0	0	-90.765	754.322	23.271	0.862303	0.006	-0.242864	0	0.821454	0
0.8	0	0	0	0.459224	0	-0.163215	0	0	0	-86.8007	749.16	24.3756	0.864778	0.006	-0.243597	0	0.739969	0
0.81	0	0	0	0.490824	0	-0.164038	0	0	0	-81.962	739.839	24.7504	0.867146	0.006	-0.244278	0	0.686136	0
0.82	0	0	0	0.522424	0	-0.164861	0	0	0	-76.4733	727.275	24.4602	0.869428	0.006	-0.244911	0	0.663419	0
0.83	0	0	0	0.554024	0	-0.165684	0	0	0	-70.5572	712.42	23.5943	0.871648	0.006	-0.245501	0	0.673528	0
0.84	0	0	0	0.585623	0	-0.166506	0	0	0	-64.4244	696.214	22.2647	0.87383	0.006	-0.246051	0	0.717585	0
0.85	0	0	0	0.617223	0	-0.167329	0	0	0	-58.2606	679.525	20.5995	0.876	0.006	-0.246567	0	0.796322	0
0.86	0	0	0	0.648823	0	-0.168152	0	0	0	-52.2161	663.108	18.7304	0.87818	0.006	-0.247053	0	0.909854	0
0.87	0	0	0	0.680423	0	-0.168975	0	0	0	-46.4031	647.573	16.7786	0.880395	0.006	-0.247513	0	1.05762	0
0.88	0	0	0	0.712023	0	-0.169798	0	0	0	-40.8992	633.386	14.8442	0.882673	0.006	-0.24795	0	1.23835	0
0.89	0	0	0	0.743623	0	-0.170621	0	0	0	-35.7528	620.886	13.0015	0.885041	0.006	-0.248369	0	1.45003	0
0.9	0	0	0	0.775223	0	-0.171444	0	0	0	-30.9896	610.312	11.3021	0.887536	0.006	-0.248773	0	1.68974	0
0.91	0	0	0	0.806822	0	-0.172267	0	0	0	-26.6178	601.839	9.78066	0.890195	0.006	-0.249164	0	1.95357	0
0.92	0	0	0	0.838422	0	-0.17309	0	0	0	-22.6322	595.594	8.46259	0.893061	0.006	-0.249547	0	2.23667	0
0.93	0	0	0	0.870022	0	-0.173913	0	0	0	-19.0143	591.68	7.36954	0.896176	0.006	-0.249926	0	2.53336	0
0.94	0	0	0	0.901622	0	-0.174736	0	0	0	-15.7312	590.192	6.52326	0.899581	0.006	-0.250309	0	2.83733	0
0.95	0	0	0	0.933222	0	-0.175559	0	0	0	-12.7322	591.224	5.94748	0.903307	0.006	-0.250704	0	3.14193	0
0.96	0	0	0	0.964822	0	-0.176382	0	0	0	-9.94649	594.877	5.66835	0.907377	0.006	-0.251122	0	3.44029	0
0.97	0	0	0	0.996422	0	-0.177205	0	0	0	-7.28256	601.25	5.71264	0.911796	0.006	-0.251572	0	3.72518	0
0.98	0	0	0	1.02802	0	-0.178028	0	0	0	-4.62936	610.42	6.10397	0.916551	0.006	-0.252064	0	3.98893	0
0.99	0	0	0	1.05962	0	-0.178851	0	0	0	-1.85871	622.416	6.8585	0.921612	0.006	-0.252606	0	4.22349	0
1	0	0	0	1.09122	0	-0.179674	0	0	0	1.16991	637.187	7.9794	0.926931	0.006	-0.253203	0	4.42029	0
1.01	0	0	0	1.12282	0	-0.180496	0	0	0	4.59964	654.576	9.4491	0.932449	0.006	-0.253853	0	4.5703	0
1.02	0	0	0	1.15442	0	-0.181319	0	0	0	8.56412	674.305	11.2267	0.938101	0.006	-0.254552	0	4.66477	0
1.03	0	0	0	1.18602	0	-0.182142	0	0	0	13.1749	695.968	13.2468	0.94382	0.006	-0.255287	0	4.69588	0
1.04	0	0	0	1.21762	0	-0.182965	0	0	0	18.5095	719.019	15.419	0.949543	0.006	-0.256042	0	4.65747	0
1.05	0	0	0	1.24922	0	-0.183788	0	0	0	24.6012	742.784	17.6302	0.955213	0.006	-0.256796	0	4.54596	0
1.06	0	0	0	1.28082	0	-0.184611	0	0	0	31.4316	766.465	19.7502	0.960777	0.006	-0.257529	0	4.36144	0
1.07	0	0	0	1.31242	0	-0.185434	0	0	0	38.9267	789.152	21.6404	0.966192	0.006	-0.258217	0	4.10832	0
